<svg xmlns="http://www.w3.org/2000/svg" viewBox="0 0 158.42 70.87"><defs><style>.cls-1{fill:#231f20;}.cls-2{font-size:9.49px;font-family:Roboto-Black, Roboto;font-weight:800;}.cls-3{letter-spacing:-0.02em;}.cls-4{letter-spacing:-0.03em;}.cls-5{letter-spacing:-0.01em;}.cls-6{letter-spacing:-0.01em;}</style></defs><title>Asset 1</title><g id="Layer_2" data-name="Layer 2"><g id="Event"><rect class="cls-1" x="153.23" width="5.19" height="70.87"/><g id="Location_date" data-name="Location date"><text class="cls-2" transform="translate(82.63 22.79)">Dubai <tspan class="cls-3" x="26.87" y="0">W</tspan><tspan x="35.15" y="0">orld</tspan></text><text class="cls-2" transform="translate(82.63 32.18)"><tspan class="cls-4">T</tspan><tspan class="cls-5" x="5.05" y="0">r</tspan><tspan x="8.42" y="0">ade Centre</tspan></text><text class="cls-2" transform="translate(80.74 48)">19–21 Ma<tspan class="cls-6" x="44.18" y="0">r</tspan><tspan x="47.6" y="0">ch</tspan><tspan x="17.9" y="11.34">2019</tspan></text></g><g id="Logo"><path d="M42.39,12.57a1.79,1.79,0,0,1-3.57,0,1.79,1.79,0,0,1,3.57,0"/><path d="M42.44,20.12a1.86,1.86,0,1,1-1.86-1.76,1.81,1.81,0,0,1,1.86,1.76"/><path d="M42.44,24.17a1.86,1.86,0,1,1-1.86-1.81,1.83,1.83,0,0,1,1.86,1.81"/><path d="M46.77,20.12a1.86,1.86,0,1,1-1.86-1.76,1.81,1.81,0,0,1,1.86,1.76"/><path d="M46.77,24.17a1.86,1.86,0,1,1-1.86-1.81,1.83,1.83,0,0,1,1.86,1.81"/><path d="M50.94,16.5a1.86,1.86,0,1,1-1.73-1.85,1.79,1.79,0,0,1,1.73,1.85"/><path d="M50.81,12.86a1.78,1.78,0,0,1-2,1.52,1.76,1.76,0,0,1-1.74-1.78,1.88,1.88,0,0,1,3.72.26"/><path d="M50.35,6.28A1.88,1.88,0,0,1,46.72,6a1.88,1.88,0,0,1,3.63.25"/><path d="M49.93,3.35a1.53,1.53,0,0,1-1.76,1.16c-.93-.06-1.64-.69-1.59-1.4a1.74,1.74,0,0,1,3.35.24"/><path d="M51.25,28.57a2,2,0,1,1-1.82-2,1.92,1.92,0,0,1,1.82,2"/><path d="M55.41,28.56a1.87,1.87,0,1,1-1.74-2,1.85,1.85,0,0,1,1.74,2"/><path d="M46.8,28.51a1.9,1.9,0,1,1-1.76-2,1.9,1.9,0,0,1,1.76,2"/><path d="M34.77,9.07a1.8,1.8,0,0,0,3.57,0,1.8,1.8,0,0,0-3.57,0"/><path d="M34.59,12.74a1.87,1.87,0,0,0,3.72-.26,1.87,1.87,0,0,0-3.72.26"/><path d="M30.45,12.86a1.88,1.88,0,0,0,3.72-.26,1.78,1.78,0,0,0-2-1.52,1.76,1.76,0,0,0-1.74,1.78"/><path d="M30.91,6.28a1.64,1.64,0,0,0,1.9,1.28A1.66,1.66,0,0,0,34.53,6a1.65,1.65,0,0,0-1.91-1.28c-1,.07-1.77.76-1.71,1.53"/><path d="M27.18,6.73c.06.72.88,1.15,1.82.95S30.67,6.74,30.62,6s-.88-1.15-1.82-.95S27.13,6,27.18,6.73"/><path d="M26.83,10c.05.79.86,1.25,1.81,1A2,2,0,0,0,30.27,9.2c-.05-.79-.87-1.25-1.82-1A2,2,0,0,0,26.83,10"/><path d="M34.4,32.55a1.9,1.9,0,0,0,3.79-.27,1.89,1.89,0,0,0-2-1.71,1.87,1.87,0,0,0-1.76,2"/><path d="M34.45,28.51a1.9,1.9,0,1,0,1.76-2,1.91,1.91,0,0,0-1.76,2"/><path d="M18.81,17.45a1.41,1.41,0,0,0,1.75,1.33,2,2,0,0,0,1.56-2,1.42,1.42,0,0,0-1.75-1.33,2,2,0,0,0-1.56,2"/><path d="M22.89,13.53a1.38,1.38,0,0,0,1.72,1.29,1.91,1.91,0,0,0,1.52-1.93,1.38,1.38,0,0,0-1.71-1.29,1.93,1.93,0,0,0-1.53,1.93"/><path d="M54,54.09c0-.72-.87-1.15-1.82-1s-1.67.94-1.61,1.66.87,1.15,1.82,1,1.67-.94,1.61-1.66"/><path d="M59.29,32.55a1.73,1.73,0,1,1-1.59-1.93,1.76,1.76,0,0,1,1.59,1.93"/><path d="M63,32.48a1.72,1.72,0,0,1-1.76,1.69,1.82,1.82,0,0,1,.26-3.61A1.72,1.72,0,0,1,63,32.48"/><path d="M66.34,32.37A1.52,1.52,0,1,1,65,30.49a1.65,1.65,0,0,1,1.37,1.88"/><path d="M66.34,28.56A1.52,1.52,0,1,1,65,26.68a1.65,1.65,0,0,1,1.37,1.88"/><path d="M25.85,32.55a1.87,1.87,0,1,0,1.73-2,1.86,1.86,0,0,0-1.73,2"/><path d="M14.91,28.56a1.66,1.66,0,0,0,1.62,1.67,1.81,1.81,0,0,0-.25-3.55,1.67,1.67,0,0,0-1.37,1.88"/><path d="M18.25,28.49a1.68,1.68,0,1,0,1.55-1.92,1.75,1.75,0,0,0-1.55,1.92"/><path d="M38.75,51.56a1.8,1.8,0,1,1,1.78,1.57,1.68,1.68,0,0,1-1.78-1.57"/><path d="M38.7,44.32a1.86,1.86,0,1,1,1.86,1.76,1.81,1.81,0,0,1-1.86-1.76"/><path d="M43,44.32a1.86,1.86,0,1,1,1.85,1.76A1.81,1.81,0,0,1,43,44.32"/><path d="M34.37,40.51a1.86,1.86,0,1,1,1.85,1.76,1.81,1.81,0,0,1-1.85-1.76"/><path d="M34.65,51.56a1.8,1.8,0,1,1,1.79,1.57,1.69,1.69,0,0,1-1.79-1.57"/><path d="M34.47,47.89a1.87,1.87,0,1,1,1.74,1.81,1.78,1.78,0,0,1-1.74-1.81"/><path d="M34.43,44.22a1.87,1.87,0,1,1,1.74,1.86,1.79,1.79,0,0,1-1.74-1.86"/><path d="M30.19,44.13A1.87,1.87,0,1,1,31.93,46a1.81,1.81,0,0,1-1.74-1.85"/><path d="M30.05,40.26a1.95,1.95,0,1,1,1.81,1.86,1.84,1.84,0,0,1-1.81-1.86"/><path d="M26,40.17a1.86,1.86,0,1,1,1.73,1.95A1.83,1.83,0,0,1,26,40.17"/><path d="M22,39.94a1.77,1.77,0,1,1,1.64,1.89A1.78,1.78,0,0,1,22,39.94"/><path d="M21.89,36.09A1.75,1.75,0,1,1,23.51,38a1.79,1.79,0,0,1-1.62-1.93"/><path d="M15,35.83a1.62,1.62,0,0,1,1.62-1.6,1.72,1.72,0,0,1-.24,3.41A1.62,1.62,0,0,1,15,35.83"/><path d="M62.57,39.91a1.36,1.36,0,0,0-1.42-1.54,1.91,1.91,0,0,0-1.61,1.79A1.36,1.36,0,0,0,61,41.7a1.9,1.9,0,0,0,1.61-1.79"/><path d="M62.75,35.87a1.44,1.44,0,0,0-1.5-1.64,2,2,0,0,0-1.71,1.9A1.44,1.44,0,0,0,61,37.77a2,2,0,0,0,1.71-1.9"/><path d="M42.39,9.07a1.8,1.8,0,0,1-3.57,0,1.8,1.8,0,0,1,3.57,0"/><path d="M42.44,16.31a1.86,1.86,0,1,1-1.86-1.76,1.81,1.81,0,0,1,1.86,1.76"/><path d="M38.15,16.31a1.86,1.86,0,1,1-1.86-1.76,1.81,1.81,0,0,1,1.86,1.76"/><path d="M34,16.38a1.86,1.86,0,1,1-1.86-1.73A1.8,1.8,0,0,1,34,16.38"/><path d="M38.15,20.22a1.91,1.91,0,1,1-1.91-1.86,1.88,1.88,0,0,1,1.91,1.86"/><path d="M46.48,9.07a1.8,1.8,0,0,1-3.57,0,1.8,1.8,0,0,1,3.57,0"/><path d="M50.53,9.36A1.81,1.81,0,0,1,47,9.11a1.81,1.81,0,0,1,3.57.25"/><path d="M46.66,12.74A1.87,1.87,0,0,1,43,12.48a1.87,1.87,0,0,1,3.71.26"/><path d="M46.71,16.41A1.87,1.87,0,1,1,45,14.55a1.8,1.8,0,0,1,1.74,1.86"/><path d="M54.07,6.73c-.06.72-.87,1.15-1.82.95S50.58,6.74,50.63,6s.88-1.15,1.83-.95,1.67.94,1.61,1.66"/><path d="M46.41,6.12c0,.77-.89,1.3-1.88,1.18a1.76,1.76,0,0,1-1.71-1.62c0-.77.89-1.3,1.89-1.18a1.76,1.76,0,0,1,1.7,1.62"/><path d="M51.09,20.37a1.95,1.95,0,0,1-3.86-.27,1.95,1.95,0,0,1,3.86.27"/><path d="M51.19,24.4a2,2,0,1,1-1.85-2,1.93,1.93,0,0,1,1.85,2"/><path d="M55.41,32.55a1.88,1.88,0,1,1-1.74-2,1.87,1.87,0,0,1,1.74,2"/><path d="M51.19,32.55a1.9,1.9,0,1,1-1.77-2,1.88,1.88,0,0,1,1.77,2"/><path d="M46.86,32.55a1.9,1.9,0,1,1-1.77-2,1.88,1.88,0,0,1,1.77,2"/><path d="M42.53,28.51a1.93,1.93,0,1,1-1.79-2,1.93,1.93,0,0,1,1.79,2"/><path d="M55.38,24.41a1.86,1.86,0,1,1-1.73-1.95,1.85,1.85,0,0,1,1.73,1.95"/><path d="M55.19,20.46a1.86,1.86,0,1,1-1.73-1.95,1.84,1.84,0,0,1,1.73,1.95"/><path d="M59.1,20.69a1.77,1.77,0,1,1-1.65-1.89,1.78,1.78,0,0,1,1.65,1.89"/><path d="M59.24,24.54a1.75,1.75,0,1,1-1.62-1.92,1.78,1.78,0,0,1,1.62,1.92"/><path d="M59.29,28.45a1.73,1.73,0,1,1-1.59-1.93,1.76,1.76,0,0,1,1.59,1.93"/><path d="M69.29,32.33c-.07,1-.73,1.71-1.47,1.65a1.58,1.58,0,0,1-1.23-1.84,1.4,1.4,0,1,1,2.7.19"/><path d="M63,28.49a1.68,1.68,0,1,1-1.54-1.92A1.74,1.74,0,0,1,63,28.49"/><path d="M66.16,24.8a1.6,1.6,0,0,1-1.61,1.6,1.72,1.72,0,1,1,1.61-1.6"/><path d="M69.17,25.11c0,.95-.56,1.65-1.29,1.56a1.88,1.88,0,0,1-1.36-1.9c0-.95.56-1.65,1.29-1.56a1.87,1.87,0,0,1,1.36,1.9"/><path d="M65.91,21.17c0,1-.54,1.67-1.33,1.6a1.92,1.92,0,0,1-1.51-1.86c-.06-.95.54-1.67,1.32-1.59a1.9,1.9,0,0,1,1.52,1.85"/><path d="M55,16.67a1.83,1.83,0,0,1-3.64-.26,1.83,1.83,0,0,1,3.64.26"/><path d="M58.87,17.12A1.47,1.47,0,0,1,57,18.46a2,2,0,0,1-1.65-2,1.47,1.47,0,0,1,1.85-1.33,2,2,0,0,1,1.65,2"/><path d="M62.45,17.45a1.42,1.42,0,0,1-1.76,1.33,2,2,0,0,1-1.56-2,1.42,1.42,0,0,1,1.75-1.33,2,2,0,0,1,1.57,2"/><path d="M62,14a1.34,1.34,0,0,1-1.66,1.26,1.87,1.87,0,0,1-1.47-1.88,1.34,1.34,0,0,1,1.66-1.26A1.87,1.87,0,0,1,62,14"/><path d="M58.36,13.53a1.38,1.38,0,0,1-1.71,1.29,1.91,1.91,0,0,1-1.53-1.93,1.38,1.38,0,0,1,1.71-1.29,1.93,1.93,0,0,1,1.53,1.93"/><path d="M65.17,14.38c.12.86-.43,1.42-1.22,1.26a2.28,2.28,0,0,1-1.64-1.84c-.12-.85.43-1.42,1.22-1.26a2.28,2.28,0,0,1,1.64,1.84"/><path d="M58.16,10.25a1.46,1.46,0,0,1-1.92,1,1.87,1.87,0,0,1-1.58-1.84,1.44,1.44,0,0,1,1.92-1,1.86,1.86,0,0,1,1.58,1.83"/><path d="M57.58,7.2a1.32,1.32,0,0,1-1.74,1,1.75,1.75,0,0,1-1.43-1.74,1.32,1.32,0,0,1,1.75-1A1.74,1.74,0,0,1,57.58,7.2"/><path d="M30.72,9.36a1.81,1.81,0,0,0,3.57-.25,1.81,1.81,0,0,0-3.57.25"/><path d="M34.84,6.12A1.52,1.52,0,0,0,36.7,7.3a1.76,1.76,0,0,0,1.69-1.62A1.52,1.52,0,0,0,36.53,4.5a1.76,1.76,0,0,0-1.69,1.62"/><path d="M34.92,3.27c0,.7.89,1.18,1.87,1.08s1.73-.76,1.68-1.46-.89-1.18-1.87-1.08-1.73.76-1.68,1.46"/><path d="M38.83,3.2c.05.68.87,1.16,1.82,1.06s1.69-.74,1.64-1.43-.87-1.16-1.83-1.06-1.68.74-1.63,1.43"/><path d="M27.6,4.12c0,.67.8,1,1.69.74a2,2,0,0,0,1.53-1.69c0-.67-.8-1-1.69-.73A2,2,0,0,0,27.6,4.12"/><path d="M19.76,11.12c.07.71.81,1,1.65.61a2.27,2.27,0,0,0,1.4-2c-.07-.72-.81-1-1.65-.61a2.27,2.27,0,0,0-1.4,2"/><path d="M30.16,20.37a1.78,1.78,0,0,0,2,1.58,1.82,1.82,0,0,0,1.74-1.86,1.77,1.77,0,0,0-2-1.58,1.82,1.82,0,0,0-1.74,1.86"/><path d="M30,28.57a2,2,0,1,0,1.83-2,1.91,1.91,0,0,0-1.83,2"/><path d="M25.85,28.56a1.87,1.87,0,1,0,1.73-2,1.85,1.85,0,0,0-1.73,2"/><path d="M30.06,32.55a1.91,1.91,0,1,0,1.77-2,1.88,1.88,0,0,0-1.77,2"/><path d="M38.73,32.56a2,2,0,0,0,4-.28,2,2,0,0,0-4,.28"/><path d="M22.16,20.69A1.77,1.77,0,1,0,23.8,18.8a1.77,1.77,0,0,0-1.64,1.89"/><path d="M22,24.54a1.75,1.75,0,1,0,1.62-1.92A1.78,1.78,0,0,0,22,24.54"/><path d="M22,28.45a1.73,1.73,0,1,0,1.6-1.93A1.76,1.76,0,0,0,22,28.45"/><path d="M22,32.55a1.73,1.73,0,1,0,1.6-1.93A1.76,1.76,0,0,0,22,32.55"/><path d="M18.21,32.48a1.65,1.65,0,1,0,1.51-1.92,1.72,1.72,0,0,0-1.51,1.92"/><path d="M14.91,32.37A1.66,1.66,0,0,0,16.53,34a1.81,1.81,0,0,0-.25-3.55,1.67,1.67,0,0,0-1.37,1.88"/><path d="M15.09,24.8a1.61,1.61,0,0,0,1.61,1.6A1.72,1.72,0,0,0,16.47,23a1.61,1.61,0,0,0-1.38,1.81"/><path d="M12.08,25.11c0,.95.56,1.65,1.29,1.56a1.88,1.88,0,0,0,1.36-1.9c0-.95-.55-1.65-1.29-1.56a1.87,1.87,0,0,0-1.36,1.9"/><path d="M12.13,28.77c0,.93.52,1.62,1.22,1.52a1.83,1.83,0,0,0,1.29-1.86c0-.94-.52-1.63-1.22-1.53a1.84,1.84,0,0,0-1.29,1.87"/><path d="M18.39,24.76a1.43,1.43,0,0,0,1.49,1.64,2,2,0,0,0,1.71-1.9,1.43,1.43,0,0,0-1.5-1.64,2,2,0,0,0-1.7,1.9"/><path d="M15.7,17.89a1.24,1.24,0,0,0,1.53,1.25,1.91,1.91,0,0,0,1.39-1.92A1.23,1.23,0,0,0,17.1,16a2,2,0,0,0-1.4,1.92"/><path d="M19.28,14a1.34,1.34,0,0,0,1.66,1.26,1.87,1.87,0,0,0,1.47-1.88,1.34,1.34,0,0,0-1.66-1.26A1.87,1.87,0,0,0,19.28,14"/><path d="M16.08,14.38c-.11.86.43,1.42,1.22,1.26a2.28,2.28,0,0,0,1.64-1.84c.12-.85-.42-1.42-1.21-1.26a2.29,2.29,0,0,0-1.65,1.84"/><path d="M23.09,10.25a1.46,1.46,0,0,0,1.93,1,1.87,1.87,0,0,0,1.57-1.84,1.44,1.44,0,0,0-1.92-1,1.87,1.87,0,0,0-1.58,1.83"/><path d="M23.67,7.2a1.33,1.33,0,0,0,1.75,1,1.75,1.75,0,0,0,1.42-1.74,1.31,1.31,0,0,0-1.74-1A1.74,1.74,0,0,0,23.67,7.2"/><path d="M38.75,48.06a1.79,1.79,0,1,1,1.78,1.64,1.71,1.71,0,0,1-1.78-1.64"/><path d="M47.18,44.25A1.86,1.86,0,1,1,49,46a1.8,1.8,0,0,1-1.85-1.74"/><path d="M43,40.41a1.91,1.91,0,1,1,1.9,1.86A1.88,1.88,0,0,1,43,40.41"/><path d="M38.7,40.51a1.86,1.86,0,1,1,1.86,1.76,1.81,1.81,0,0,1-1.86-1.76"/><path d="M38.7,36.46a1.86,1.86,0,1,1,1.86,1.81,1.83,1.83,0,0,1-1.86-1.81"/><path d="M34.37,36.46a1.86,1.86,0,1,1,1.85,1.81,1.83,1.83,0,0,1-1.85-1.81"/><path d="M30.6,51.3a1.78,1.78,0,1,1,1.65,1.63A1.65,1.65,0,0,1,30.6,51.3"/><path d="M26.75,50.92a1.41,1.41,0,0,1,1.8-1.17,1.83,1.83,0,0,1,1.58,1.8,1.41,1.41,0,0,1-1.8,1.17,1.85,1.85,0,0,1-1.58-1.8"/><path d="M19.7,50.12A1.26,1.26,0,0,1,21.31,49a1.73,1.73,0,0,1,1.33,1.75A1.26,1.26,0,0,1,21,51.87a1.73,1.73,0,0,1-1.34-1.75"/><path d="M27.07,54.09c.05-.72.87-1.15,1.82-1s1.67.94,1.61,1.66-.87,1.15-1.82,1-1.67-.94-1.61-1.66"/><path d="M34.72,54.7c.05-.77.89-1.3,1.89-1.18a1.77,1.77,0,0,1,1.71,1.62,1.54,1.54,0,0,1-1.89,1.18,1.77,1.77,0,0,1-1.71-1.62"/><path d="M29.94,36.23a1.9,1.9,0,1,1,1.76,2,1.88,1.88,0,0,1-1.76-2"/><path d="M25.76,36.22a1.86,1.86,0,1,1,1.73,2,1.85,1.85,0,0,1-1.73-2"/><path d="M18.23,36.09A1.69,1.69,0,1,1,19.79,38a1.75,1.75,0,0,1-1.56-1.92"/><path d="M12.16,35.66c0-.89.52-1.53,1.19-1.45A1.74,1.74,0,0,1,14.61,36c0,.89-.52,1.54-1.19,1.46a1.75,1.75,0,0,1-1.26-1.77"/><path d="M22.26,43.51a1.48,1.48,0,0,1,1.85-1.34,2,2,0,0,1,1.66,2,1.48,1.48,0,0,1-1.85,1.33,2,2,0,0,1-1.66-2"/><path d="M18.68,43.25A1.4,1.4,0,0,1,20.44,42,1.93,1.93,0,0,1,22,43.9a1.4,1.4,0,0,1-1.75,1.28,1.94,1.94,0,0,1-1.57-1.93"/><path d="M19.16,46.75a1.33,1.33,0,0,1,1.66-1.21,1.84,1.84,0,0,1,1.48,1.82,1.32,1.32,0,0,1-1.66,1.2,1.82,1.82,0,0,1-1.48-1.81"/><path d="M22.77,47.17a1.36,1.36,0,0,1,1.71-1.23A1.9,1.9,0,0,1,26,47.8,1.37,1.37,0,0,1,24.3,49a1.88,1.88,0,0,1-1.53-1.86"/><path d="M15.65,43c-.11-.86.42-1.43,1.19-1.27a2.27,2.27,0,0,1,1.61,1.85c.11.85-.42,1.42-1.2,1.27A2.27,2.27,0,0,1,15.65,43"/><path d="M23,50.42a1.4,1.4,0,0,1,1.86-1,1.81,1.81,0,0,1,1.52,1.79,1.4,1.4,0,0,1-1.86,1A1.83,1.83,0,0,1,23,50.42"/><path d="M46.65,36.46a1.86,1.86,0,1,0-1.86,1.81,1.83,1.83,0,0,0,1.86-1.81"/><path d="M46.37,51.56a1.81,1.81,0,1,0-1.79,1.57,1.69,1.69,0,0,0,1.79-1.57"/><path d="M50.41,51.34a1.74,1.74,0,1,0-1.62,1.6,1.62,1.62,0,0,0,1.62-1.6"/><path d="M46.54,47.89A1.87,1.87,0,1,0,44.8,49.7a1.77,1.77,0,0,0,1.74-1.81"/><path d="M50.69,47.84A1.81,1.81,0,1,0,49,49.56a1.71,1.71,0,0,0,1.68-1.72"/><path d="M54.43,50.82c0-.8-.86-1.26-1.81-1A2,2,0,0,0,51,51.62c.06.79.87,1.25,1.82,1a2,2,0,0,0,1.62-1.83"/><path d="M46.29,54.59c0-.74-.88-1.25-1.86-1.13s-1.74.8-1.69,1.54.89,1.25,1.87,1.13,1.73-.8,1.68-1.54"/><path d="M42.38,54.86a1.7,1.7,0,0,0-1.9-1.28c-1,0-1.76.66-1.71,1.4a1.71,1.71,0,0,0,1.9,1.29c1,0,1.76-.66,1.71-1.41"/><path d="M42.31,57.69c-.06-.69-.87-1.17-1.82-1.06s-1.69.74-1.64,1.43.87,1.16,1.82,1,1.69-.74,1.64-1.42"/><path d="M51,40.26a1.77,1.77,0,0,0-2-1.58,1.82,1.82,0,0,0-1.75,1.86,1.78,1.78,0,0,0,2,1.58A1.82,1.82,0,0,0,51,40.26"/><path d="M55.07,40.21a1.83,1.83,0,1,0-1.7,1.91,1.81,1.81,0,0,0,1.7-1.91"/><path d="M59,39.94a1.77,1.77,0,1,0-1.64,1.89A1.78,1.78,0,0,0,59,39.94"/><path d="M66.1,35.93c.05-1-.54-1.71-1.33-1.67a1.81,1.81,0,0,0-1.51,1.8,1.43,1.43,0,0,0,1.32,1.68,1.82,1.82,0,0,0,1.52-1.81"/><path d="M65.79,39.53A1.31,1.31,0,0,0,64.47,38,1.85,1.85,0,0,0,63,39.78a1.3,1.3,0,0,0,1.33,1.53,1.84,1.84,0,0,0,1.51-1.78"/><path d="M54.88,44a1.8,1.8,0,1,0-1.67,1.74A1.72,1.72,0,0,0,54.88,44"/><path d="M65.56,43a1.22,1.22,0,0,0-1.5-1.23,1.88,1.88,0,0,0-1.36,1.88,1.21,1.21,0,0,0,1.49,1.23A1.9,1.9,0,0,0,65.56,43"/><path d="M62.33,43.22a1.36,1.36,0,0,0-1.69-1.31,1.94,1.94,0,0,0-1.5,2,1.37,1.37,0,0,0,1.69,1.31,2,2,0,0,0,1.5-2"/><path d="M58.57,47.25A1.42,1.42,0,0,0,56.81,46a1.88,1.88,0,0,0-1.56,1.88A1.42,1.42,0,0,0,57,49.13a1.89,1.89,0,0,0,1.56-1.88"/><path d="M54.77,47.54a1.52,1.52,0,0,0-1.89-1.35,2,2,0,0,0-1.67,2,1.52,1.52,0,0,0,1.89,1.34,2,2,0,0,0,1.67-2"/><path d="M58.17,50.57a1.46,1.46,0,0,0-1.92-1,1.87,1.87,0,0,0-1.58,1.84,1.44,1.44,0,0,0,1.92,1,1.87,1.87,0,0,0,1.58-1.83"/></g><path d="M5.61,67.58a3.08,3.08,0,0,1-2.3,1,3.18,3.18,0,0,1-2.33-1,3.21,3.21,0,0,1-1-2.34A3.16,3.16,0,0,1,1,62.9a3.19,3.19,0,0,1,2.33-1,3.13,3.13,0,0,1,2.3.92,5.36,5.36,0,0,1-.51.55,2,2,0,0,0-.81-.49,2.7,2.7,0,0,0-1-.22,2.47,2.47,0,0,0-1.8.75,2.53,2.53,0,0,0,0,3.6,2.47,2.47,0,0,0,1.8.75,2.7,2.7,0,0,0,1-.22,2,2,0,0,0,.81-.49Z"/><path d="M13.19,65.23a2.54,2.54,0,0,0-2.56-2.55,2.49,2.49,0,0,0-1.8.75,2.53,2.53,0,0,0,0,3.6,2.49,2.49,0,0,0,1.8.75,2.45,2.45,0,0,0,1.8-.75,2.43,2.43,0,0,0,.76-1.8M14,68.54h-.78V67.37a3.3,3.3,0,0,1-2.55,1.17,3.35,3.35,0,0,1-3.32-3.31,3.16,3.16,0,0,1,1-2.33,3.2,3.2,0,0,1,2.34-1,3.18,3.18,0,0,1,2.55,1.18,9.12,9.12,0,0,0,0-1.18H14Z"/><path d="M21.87,62.84a5.36,5.36,0,0,1-.51.55,2,2,0,0,0-.8-.49,2.74,2.74,0,0,0-1-.22,3.6,3.6,0,0,0-1.14.27,2.24,2.24,0,0,0-.95.85A2.16,2.16,0,0,0,17.05,65v3.57h-.79V61.92h.79V63.1a3.25,3.25,0,0,1,2.52-1.18,3.13,3.13,0,0,1,2.3.92"/><path d="M29.28,64.85a2.57,2.57,0,0,0-.88-1.56,2.42,2.42,0,0,0-1.64-.61,2.38,2.38,0,0,0-1.64.61,2.6,2.6,0,0,0-.87,1.56Zm.81.75H24.27s0,0,0,.08a4,4,0,0,0,.14.4,2.45,2.45,0,0,0,2.37,1.7,2.7,2.7,0,0,0,1-.22,2,2,0,0,0,.81-.49l.52.51a3.11,3.11,0,0,1-2.3,1,3.31,3.31,0,1,1,2.76-5.15,2.88,2.88,0,0,1,.57,1.51Z"/><path d="M37.8,64.85a2.57,2.57,0,0,0-.88-1.56,2.42,2.42,0,0,0-1.64-.61,2.38,2.38,0,0,0-1.64.61,2.65,2.65,0,0,0-.87,1.56Zm.81.75H32.79s0,0,0,.08a4,4,0,0,0,.14.4,2.45,2.45,0,0,0,2.37,1.7,2.7,2.7,0,0,0,1-.22,2,2,0,0,0,.81-.49l.52.51a3.1,3.1,0,0,1-2.3,1,3.31,3.31,0,0,1,0-6.62A3.15,3.15,0,0,1,38,63.39a2.88,2.88,0,0,1,.57,1.51Z"/><path d="M46.1,62.84a5.36,5.36,0,0,1-.51.55,2,2,0,0,0-.81-.49,2.65,2.65,0,0,0-1-.22,3.61,3.61,0,0,0-1.13.27,2.18,2.18,0,0,0-1,.85A2.11,2.11,0,0,0,41.27,65v3.57h-.79V61.92h.79V63.1a3.25,3.25,0,0,1,2.53-1.18,3.13,3.13,0,0,1,2.3.92"/><path d="M54.09,64.9a3.15,3.15,0,0,1-.86,2.56,3.24,3.24,0,0,1-2.48,1.08,3.32,3.32,0,0,1-1.25-.27,2.83,2.83,0,0,1-1.07-.69A7.57,7.57,0,0,1,49,67a2.12,2.12,0,0,0,.82.53,2.58,2.58,0,0,0,1,.22,2.46,2.46,0,0,0,1.66-.6,2.71,2.71,0,0,0,.89-1.55H47.5l-.06-.07a3.33,3.33,0,0,1,5.62-2.72c-.06.08-.24.27-.52.55a2,2,0,0,0-.81-.49,2.7,2.7,0,0,0-1-.22,2.38,2.38,0,0,0-1.64.61,2.78,2.78,0,0,0-.88,1.56Z"/><path d="M66,68.34h-.87v-1A2.53,2.53,0,0,1,63,68.52a2.32,2.32,0,0,1-1.69-.61,2,2,0,0,1-.49-1.53V61.92h.88V66a2.44,2.44,0,0,0,.22,1.3,1.55,1.55,0,0,0,1.32.63,2.79,2.79,0,0,0,2-1v-5H66Z"/><path d="M72.33,66l-1-2.15a2.33,2.33,0,0,1-.19-.58,1.76,1.76,0,0,1-.19.54L70,66Zm2,2.38h-.93l-.83-1.82H69.72l-.83,1.82h-.78l3-6.41h.25Z"/><polygon points="80.78 67.79 80.78 68.34 76.44 68.34 76.44 61.92 80.36 61.92 80.36 62.48 77.31 62.48 77.31 64.72 80.01 64.72 80.01 65.26 77.31 65.26 77.31 67.79 80.78 67.79"/></g></g></svg>